<svg width="32" height="32" viewBox="0 0 32 32" fill="none" xmlns="http://www.w3.org/2000/svg">
  <path d="M6 6H26V26H6V6ZM11.2556 22.7111C11.7 23.6556 12.5778 24.4333 14.0778 24.4333C15.7444 24.4333 16.8889 23.5444 16.8889 21.6V15.1778H15V21.5556C15 22.5111 14.6111 22.7556 14 22.7556C13.3556 22.7556 13.0889 22.3111 12.7889 21.7889L11.2556 22.7111M17.9 22.5111C18.4556 23.6 19.5778 24.4333 21.3333 24.4333C23.1111 24.4333 24.4444 23.5111 24.4444 21.8111C24.4444 20.2444 23.5444 19.5444 21.9444 18.8556L21.4778 18.6556C20.6667 18.3111 20.3222 18.0778 20.3222 17.5222C20.3222 17.0667 20.6667 16.7111 21.2222 16.7111C21.7556 16.7111 22.1111 16.9444 22.4333 17.5222L23.8889 16.5556C23.2778 15.4889 22.4111 15.0778 21.2222 15.0778C19.5444 15.0778 18.4667 16.1444 18.4667 17.5556C18.4667 19.0889 19.3667 19.8111 20.7222 20.3889L21.1889 20.5889C22.0556 20.9667 22.5667 21.2 22.5667 21.8444C22.5667 22.3778 22.0667 22.7667 21.2889 22.7667C20.3667 22.7667 19.8333 22.2889 19.4333 21.6222L17.9 22.5111Z" fill="#FFCB6B"/>
</svg>
