<svg xmlns="http://www.w3.org/2000/svg" viewBox="0 0 32 32" width="32" height="32">
  <g>
    <path d="M40 12H22l-4-4H8c-2.2 0-4 1.8-4 4v8h40v-4c0-2.2-1.8-4-4-4z"
          style="stroke:none;stroke-width:1;stroke-dasharray:none;stroke-linecap:butt;stroke-dashoffset:0;stroke-linejoin:miter;stroke-miterlimit:4;fill:#ffa000;fill-rule:nonzero;opacity:1"
          transform="matrix(.58 0 0 .58 2.08 2.08)"/>
    <path d="M40 12H8c-2.2 0-4 1.8-4 4v20c0 2.2 1.8 4 4 4h32c2.2 0 4-1.8 4-4V16c0-2.2-1.8-4-4-4z"
          style="stroke:none;stroke-width:1;stroke-dasharray:none;stroke-linecap:butt;stroke-dashoffset:0;stroke-linejoin:miter;stroke-miterlimit:4;fill:#ffca28;fill-rule:nonzero;opacity:1"
          transform="matrix(.58 0 0 .58 2.08 2.08)"/>
  </g>
</svg>
