<svg xmlns="http://www.w3.org/2000/svg" viewBox="0 0 32 32" width="32" height="32">
  <g>
    <path d="M38 12H22l-4-4H8c-2.2 0-4 1.8-4 4v24c0 2.2 1.8 4 4 4h31c1.7 0 3-1.3 3-3V16c0-2.2-1.8-4-4-4z"
          style="stroke:none;stroke-width:1;stroke-dasharray:none;stroke-linecap:butt;stroke-dashoffset:0;stroke-linejoin:miter;stroke-miterlimit:4;fill:#ffa000;fill-rule:nonzero;opacity:1"
          transform="matrix(.58 0 0 .58 2.08 2.08)"/>
    <path d="M42.2 18H15.3c-1.9 0-3.6 1.4-3.9 3.3L8 40h31.7c1.9 0 3.6-1.4 3.9-3.3l2.5-14c.5-2.4-1.4-4.7-3.9-4.7z"
          style="stroke:none;stroke-width:1;stroke-dasharray:none;stroke-linecap:butt;stroke-dashoffset:0;stroke-linejoin:miter;stroke-miterlimit:4;fill:#ffca28;fill-rule:nonzero;opacity:1"
          transform="matrix(.58 0 0 .58 2.08 2.08)"/>
  </g>
</svg>
